#!OML:ASF H:\ManfredETheater\Project 1\Capture day 1\Session 1\subject.ASF
:FULLY-SPECIFIED
:DEGREES
186
root -9.44852 16.2478 -28.5166 -189.396 -21.8627 181.723
lowerback 17.8018 0.451061 2.57047
upperback 0.591301 1.14575 2.50422
thorax -9.36958 0.402205 0.980004
lowerneck -19.133 -2.09533 -2.60927
upperneck 11.9923 -2.38673 1.52673
head 6.83219 -1.13134 0.648935
rclavicle 7.20346e-014 1.03368e-014
rhumerus -33.4373 15.4271 -86.8492
rradius 66.0723
rwrist 0.199191
rhand -20.6147 -3.09688
rfingers 7.12502
rthumb 5.74632 -32.999
lclavicle 7.20346e-014 1.03368e-014
lhumerus -39.0228 -3.39452 93.5771
lradius 74.0321
lwrist 6.44352
lhand -29.2744 -5.29174
lfingers 7.12502
lthumb -2.6167 24.672
rfemur -33.5418 -11.1585 20.133
rtibia 82.813
rfoot -13.7389 -3.91953
rtoes -30.545
lfemur -38.3531 -5.30749 -19.7513
ltibia 60.9404
lfoot -9.77069 -1.98788
ltoes -1.86296
187
root -9.50505 16.3421 -28.6204 -189.056 -21.6076 181.573
lowerback 17.5982 0.459467 2.43839
upperback 0.551003 1.13001 2.51797
thorax -9.30287 0.403873 1.07411
lowerneck -19.3236 -2.04858 -2.61401
upperneck 12.1041 -2.3002 1.41775
head 6.89694 -1.09915 0.622324
rclavicle -2.89946e-014 5.32743e-014
rhumerus -33.1555 12.9339 -85.2645
rradius 63.3732
rwrist 0.849297
rhand -20.9321 -3.44639
rfingers 7.12502
rthumb 5.4399 -33.3566
lclavicle -2.89946e-014 5.32743e-014
lhumerus -38.78 -3.48363 93.3003
lradius 72.848
lwrist 6.57048
lhand -29.3514 -4.62939
lfingers 7.12502
lthumb -2.6911 25.3334
rfemur -33.7592 -10.9606 20.4416
rtibia 80.1602
rfoot -14.7103 -3.75542
rtoes -31.5277
lfemur -37.607 -5.52347 -19.863
ltibia 60.1302
lfoot -9.92857 -1.54337
ltoes -1.75096
188
root -9.55896 16.4328 -28.7249 -188.722 -21.4043 181.455
lowerback 17.3574 0.463106 2.31117
upperback 0.510122 1.10927 2.54811
thorax -9.21592 0.403323 1.18443
lowerneck -19.4784 -2.00421 -2.6246
upperneck 12.1989 -2.21367 1.29545
head 6.95033 -1.06891 0.592656
rclavicle -3.55141e-014 -7.95139e-015
rhumerus -32.947 10.4772 -83.6926
rradius 60.8239
rwrist 1.1457
rhand -21.4356 -3.6958
rfingers 7.12502
rthumb 4.95374 -33.6179
lclavicle -3.55141e-014 -7.95139e-015
lhumerus -38.5574 -3.64464 93.0676
lradius 71.6743
lwrist 6.6544
lhand -29.3676 -4.04047
lfingers 7.12502
lthumb -2.70676 25.9221
rfemur -33.8657 -10.698 20.7226
rtibia 77.4109
rfoot -15.6253 -3.48188
rtoes -32.5208
lfemur -36.897 -5.76263 -19.9523
ltibia 59.338
lfoot -10.0846 -1.12012
ltoes -1.6196
189
root -9.60995 16.5199 -28.8299 -188.396 -21.236 181.371
lowerback 17.0839 0.465219 2.18733
upperback 0.468385 1.08764 2.59367
thorax -9.11152 0.402464 1.30959
lowerneck -19.5876 -1.95964 -2.63528
upperneck 12.2738 -2.12566 1.16053
head 6.98969 -1.03959 0.559453
rclavicle 2.14687e-014 1.03368e-014
rhumerus -32.8112 8.09677 -82.1451
rradius 58.4249
rwrist 1.00281
rhand -22.0898 -3.92436
rfingers 7.12502
rthumb 4.32204 -33.8603
lclavicle 2.14687e-014 1.03368e-014
lhumerus -38.3625 -3.86291 92.8712
lradius 70.5237
lwrist 6.71192
lhand -29.3404 -3.58059
lfingers 7.12502
lthumb -2.68041 26.3823
rfemur -33.8604 -10.3443 20.9777
rtibia 74.5933
rfoot -16.4422 -3.14555
rtoes -33.3875
lfemur -36.2189 -5.99728 -20.0133
ltibia 58.5681
lfoot -10.2443 -0.729571
ltoes -1.50644
190
root -9.65801 16.6028 -28.9356 -188.081 -21.1083 181.312
lowerback 16.777 0.461908 2.06458
upperback 0.426394 1.05912 2.64833
thorax -8.98845 0.398401 1.44539
lowerneck -19.6429 -1.91305 -2.63959
upperneck 12.324 -2.03602 1.01399
head 7.01201 -1.01065 0.522059
rclavicle -1.33807e-014 -8.74653e-014
rhumerus -32.7395 5.82344 -80.63
rradius 56.1622
rwrist 0.468887
rhand -22.8445 -4.17765
rfingers 7.12502
rthumb 3.5933 -34.1271
lclavicle -1.33807e-014 -8.74653e-014
lhumerus -38.2109 -4.13121 92.704
lradius 69.4262
lwrist 6.76405
lhand -29.2454 -3.19503
lfingers 7.12502
lthumb -2.58875 26.769
rfemur -33.7406 -9.89981 21.192
rtibia 71.7372
rfoot -17.1211 -2.78362
rtoes -34.0657
lfemur -35.5686 -6.22439 -20.0548
ltibia 57.8225
lfoot -10.4116 -0.377378
ltoes -1.41244
191
root -9.70341 16.6822 -29.0423 -187.786 -21.0496 181.261
lowerback 16.4389 0.442122 1.93428
upperback 0.392811 1.00617 2.70145
thorax -8.83801 0.382773 1.58913
lowerneck -19.6423 -1.86406 -2.6244
upperneck 12.3449 -1.94738 0.852131
head 7.01533 -0.982953 0.476858
rclavicle -3.58682e-014 1.59028e-015
rhumerus -32.7152 3.65529 -79.1504
rradius 54.0161
rwrist -0.283549
rhand -23.6061 -4.44178
rfingers 7.12502
rthumb 2.85775 -34.4024
lclavicle -3.58682e-014 1.59028e-015
lhumerus -38.0965 -4.43852 92.5542
lradius 68.3901
lwrist 6.81504
lhand -29.108 -2.87309
lfingers 7.12502
lthumb -2.45603 27.0925
rfemur -33.4819 -9.38912 21.3345
rtibia 68.8718
rfoot -17.6263 -2.42208
rtoes -34.5529
lfemur -34.9216 -6.45887 -20.1019
ltibia 57.0965
lfoot -10.5915 -0.0758168
ltoes -1.32278
192
root -9.74595 16.7578 -29.1494 -187.511 -21.0518 181.224
lowerback 16.0748 0.40482 1.80474
upperback 0.363476 0.929504 2.75124
thorax -8.66719 0.35542 1.7336
lowerneck -19.5913 -1.8114 -2.59536
upperneck 12.348 -1.859 0.689604
head 7.00456 -0.954909 0.429563
rclavicle -3.07868e-014 -2.62396e-014
rhumerus -32.7311 1.59591 -77.7079
rradius 51.9643
rwrist -1.01173
rhand -24.3073 -4.67201
rfingers 7.12502
rthumb 2.18055 -34.6406
lclavicle -3.07868e-014 -2.62396e-014
lhumerus -38.0305 -4.77518 92.4132
lradius 67.4361
lwrist 6.86738
lhand -28.9409 -2.56764
lfingers 7.12502
lthumb -2.29467 27.3998
rfemur -33.0993 -8.79938 21.4159
rtibia 66.0293
rfoot -17.9079 -2.07721
rtoes -34.886
lfemur -34.2842 -6.69161 -20.1438
ltibia 56.3903
lfoot -10.7824 0.169636
ltoes -1.22738
193
root -9.78611 16.83 -29.2573 -187.256 -21.1136 181.186
lowerback 15.6851 0.349038 1.67206
upperback 0.337587 0.826965 2.7883
thorax -8.47683 0.31535 1.87095
lowerneck -19.4996 -1.75667 -2.56314
upperneck 12.3514 -1.7735 0.548107
head 6.98758 -0.926171 0.388571
rclavicle 2.17669e-014 -8.0309e-014
rhumerus -32.7835 -0.355573 -76.3062
rradius 49.9781
rwrist -1.48649
rhand -24.9017 -4.80037
rfingers 7.12502
rthumb 1.60649 -34.7741
lclavicle 2.17669e-014 -8.0309e-014
lhumerus -38.0151 -5.13165 92.2682
lradius 66.5644
lwrist 6.89885
lhand -28.6988 -2.23693
lfingers 7.12502
lthumb -2.06084 27.7329
rfemur -32.5937 -8.13242 21.4224
rtibia 63.2436
rfoot -17.9249 -1.7469
rtoes -34.9849
lfemur -33.6452 -6.92119 -20.1952
ltibia 55.6998
lfoot -10.9879 0.356748
ltoes -1.10154
194
root -9.82431 16.8989 -29.366 -187.024 -21.2338 181.15
lowerback 15.267 0.273847 1.54261
upperback 0.319381 0.698026 2.8102
thorax -8.26045 0.261805 1.99452
lowerneck -19.3769 -1.70121 -2.52176
upperneck 12.3607 -1.69316 0.423161
head 6.96772 -0.897922 0.351091
rclavicle -2.70471e-014 2.8625e-014
rhumerus -32.8641 -2.21308 -74.9411
rradius 48.0412
rwrist -1.5003
rhand -25.3268 -4.80731
rfingers 7.12502
rthumb 1.19595 -34.7837
lclavicle -2.70471e-014 2.8625e-014
lhumerus -38.0401 -5.50077 92.1119
lradius 65.7717
lwrist 6.89442
lhand -28.398 -1.85422
lfingers 7.12502
lthumb -1.77032 28.1182
rfemur -31.9725 -7.40772 21.3633
rtibia 60.5537
rfoot -17.6602 -1.43192
rtoes -34.773
lfemur -32.9995 -7.14388 -20.256
ltibia 55.0275
lfoot -11.2108 0.479137
ltoes -0.959199
195
root -9.86085 16.964 -29.4753 -186.803 -21.4249 181.099
lowerback 14.8256 0.175197 1.40801
upperback 0.29918 0.536922 2.81161
thorax -8.03117 0.19246 2.10417
lowerneck -19.2295 -1.64457 -2.47228
upperneck 12.3901 -1.61696 0.315565
head 6.95059 -0.869695 0.317575
rclavicle -6.99474e-015 3.33958e-014
rhumerus -32.9833 -3.9781 -73.6097
rradius 46.1418
rwrist -0.937587
rhand -25.5574 -4.71065
rfingers 7.12502
rthumb 0.973178 -34.6882
lclavicle -6.99474e-015 3.33958e-014
lhumerus -38.108 -5.86409 91.9365
lradius 65.0367
lwrist 6.83079
lhand -27.9663 -1.51774
lfingers 7.12502
lthumb -1.3534 28.4577
rfemur -31.2605 -6.66072 21.2356
rtibia 58.0051
rfoot -17.1282 -1.14643
rtoes -34.1104
lfemur -32.3606 -7.3666 -20.3424
ltibia 54.3775
lfoot -11.4498 0.53094
ltoes -0.771848
196
root -9.89605 17.0248 -29.5847 -186.592 -21.6823 181.04
lowerback 14.3694 0.0551343 1.27812
upperback 0.27211 0.348807 2.79407
thorax -7.79913 0.109376 2.19446
lowerneck -19.0779 -1.59008 -2.42895
upperneck 12.4613 -1.54693 0.237498
head 6.94686 -0.842151 0.293844
rclavicle 2.08227e-014 4.53229e-014
rhumerus -33.1414 -5.614 -72.3143
rradius 44.273
rwrist 0.141822
rhand -25.6032 -4.57144
rfingers 7.12502
rthumb 0.928976 -34.5492
lclavicle 2.08227e-014 4.53229e-014
lhumerus -38.2208 -6.21547 91.7451
lradius 64.3598
lwrist 6.69803
lhand -27.4134 -1.22463
lfingers 7.12502
lthumb -0.819323 28.7535
rfemur -30.4784 -5.9173 21.063
rtibia 55.6443
rfoot -16.3868 -0.946173
rtoes -32.9463
lfemur -31.738 -7.58117 -20.4468
ltibia 53.7575
lfoot -11.7073 0.504763
ltoes -0.481121
197
root -9.92977 17.0808 -29.6939 -186.391 -22.0038 180.986
lowerback 13.9056 -0.0840931 1.16132
upperback 0.231976 0.138773 2.76354
thorax -7.57512 0.01479 2.26572
lowerneck -18.921 -1.53967 -2.39248
upperneck 12.5776 -1.48486 0.184365
head 6.95743 -0.816739 0.278297
rclavicle 4.36581e-014 2.38542e-014
rhumerus -33.3538 -7.13682 -71.0485
rradius 42.4488
rwrist 1.65028
rhand -25.4998 -4.43515
rfingers 7.12502
rthumb 1.02885 -34.4124
lclavicle 4.36581e-014 2.38542e-014
lhumerus -38.3713 -6.54866 91.54
lradius 63.7221
lwrist 6.48508
lhand -26.7464 -1.01589
lfingers 7.12502
lthumb -0.175173 28.9638
rfemur -29.6452 -5.20774 20.8797
rtibia 53.5109
rfoot -15.5488 -0.906096
rtoes -31.3459
lfemur -31.1461 -7.78152 -20.5519
ltibia 53.1784
lfoot -11.9812 0.392515
ltoes -0.100515
198
root -9.96272 17.1317 -29.8025 -186.191 -22.3924 180.913
lowerback 13.4289 -0.239373 1.03955
upperback 0.186026 -0.0926574 2.71729
thorax -7.34852 -0.090503 2.32458
lowerneck -18.7798 -1.49567 -2.37035
upperneck 12.7435 -1.43118 0.154183
head 6.98717 -0.794336 0.271305
rclavicle 2.23322e-014 1.11319e-014
rhumerus -33.6075 -8.52875 -69.8125
rradius 40.6758
rwrist 3.39928
rhand -25.2718 -4.36101
rfingers 7.12502
rthumb 1.24903 -34.3371
lclavicle 2.23322e-014 1.11319e-014
lhumerus -38.5413 -6.85509 91.3285
lradius 63.122
lwrist 6.19195
lhand -26.01 -0.931131
lfingers 7.12502
lthumb 0.536068 29.0479
rfemur -28.771 -4.58207 20.6746
rtibia 51.6307
rfoot -14.7534 -1.01627
rtoes -29.3601
lfemur -30.5873 -7.96899 -20.685
ltibia 52.646
lfoot -12.2677 0.197756
ltoes 0.306543
